<?xml version="1.0" encoding="UTF-8"?>
<svg width="298px" height="75px" viewBox="0 0 298 75" version="1.1" xmlns="http://www.w3.org/2000/svg" xmlns:xlink="http://www.w3.org/1999/xlink">
    <!-- Generator: Sketch 44.1 (41455) - http://www.bohemiancoding.com/sketch -->
    <title>Page 1</title>
    <desc>Created with Sketch.</desc>
    <defs>
        <polygon id="path-1" points="24.1199721 38.316389 24.1199721 0.0123890411 0.164993801 0.0123890411 0.164993801 38.316389 24.1199721 38.316389"></polygon>
        <polygon id="path-3" points="84.0561867 74.9589041 0 74.9589041 0 0.524712329 84.0561867 0.524712329 84.0561867 74.9589041"></polygon>
    </defs>
    <g id="Page-1" stroke="none" stroke-width="1" fill="none" fill-rule="evenodd">
        <g id="INICIO-/-LOGIN" transform="translate(-568.000000, -95.000000)">
            <g id="Page-1" transform="translate(568.000000, 94.000000)">
                <path d="M104.709624,33.448537 L104.709624,58.0756603 C105.946815,58.224537 107.431864,58.2745096 109.213083,58.2745096 C115.696258,58.2745096 119.011887,54.6067288 119.011887,45.6387288 C119.011887,37.0663452 116.042839,33.2017973 109.163721,33.2017973 C107.728034,33.2017973 106.242984,33.2996603 104.709624,33.448537 L104.709624,33.448537 Z M97.7307327,62.7345644 L97.7307327,28.6917699 C101.443356,27.9484274 105.20429,27.552811 108.966275,27.552811 C122.576426,27.552811 126.04119,35.0840986 126.04119,45.6387288 C126.04119,51.2377425 125.000396,55.4000438 122.42729,58.7690301 C119.903547,62.1390575 115.349676,63.9224548 108.866501,63.9224548 C107.085283,63.9224548 105.254702,63.8245918 103.37371,63.6257425 C101.541029,63.4279342 100.106391,63.2290849 99.1664203,63.0312767 L97.7307327,62.7345644 Z" id="Fill-1" fill="#1E7DD3"></path>
                <path d="M142.322644,58.9675671 L142.916034,58.8186904 L142.916034,52.7740877 C141.185227,52.5752384 139.849312,52.4763342 138.85893,52.4763342 C135.492888,52.4763342 133.661257,53.2696493 133.661257,55.9952384 C133.661257,58.6208822 135.393115,59.4641699 138.363213,59.4641699 C139.897624,59.4641699 141.580119,59.2153479 142.322644,58.9675671 M142.916034,48.315074 L142.916034,45.2917315 C142.916034,42.3683342 140.937368,40.8816493 137.027299,40.8816493 C134.503555,40.8816493 131.682592,41.4761151 130.444351,42.0216493 L129.50438,42.3683342 L128.217827,37.3138137 C130.989429,35.9760055 134.305059,35.3315671 138.165767,35.3315671 C145.491239,35.3315671 149.696428,38.2549644 149.696428,45.4406082 L149.696428,61.6431836 C149.350897,61.7920603 148.905592,62.0398411 148.261791,62.2876219 C147.668401,62.5364438 146.331437,62.8331562 144.30236,63.2797863 C142.273282,63.7243342 140.194844,63.9231836 138.065993,63.9231836 C130.544124,63.9231836 126.78214,61.246526 126.78214,55.9452658 C126.78214,50.6429644 130.593486,47.968389 138.165767,47.968389 C139.897624,47.968389 141.481396,48.0662521 142.916034,48.315074" id="Fill-3" fill="#1E7DD3"></path>
                <path d="M152.072297,35.9262411 L158.853742,35.9262411 L158.853742,53.1699123 C158.853742,54.6066247 159.149911,55.7466247 159.693939,56.5399397 C160.882819,58.1255288 162.168321,58.2744055 164.347584,58.2744055 C166.128802,58.2744055 167.910021,58.0266247 168.652546,57.7778027 L169.196574,57.6310082 L169.196574,35.9262411 L176.02738,35.9262411 L176.02738,60.9500219 C176.02738,69.8201589 171.918814,74.2302411 163.010619,74.2302411 C160.237967,74.2302411 157.268919,73.6857479 155.933005,73.2391178 L154.942622,72.9424055 L155.78492,67.6890356 C157.566139,68.4323781 159.744351,68.779063 162.268095,68.779063 C167.067723,68.779063 169.543155,66.846789 169.69124,63.0311726 C168.008745,63.4278301 166.128802,63.6256384 164.049313,63.6256384 C159.991159,63.6256384 156.972749,62.8333644 154.991983,61.1978027 C153.06163,59.5622411 152.072297,56.6398849 152.072297,52.5265151 L152.072297,35.9262411 Z" id="Fill-5" fill="#1E7DD3"></path>
                <path d="M194.438105,41.3766904 L187.161994,41.3766904 L187.161994,53.4180055 C187.161994,56.7380603 188.498958,58.4225534 191.171837,58.4225534 C192.310304,58.4225534 193.69558,58.1258411 194.339382,57.8780603 L194.834048,57.7291836 L195.625934,62.7347726 C194.191297,63.5260055 192.161169,63.922663 189.637426,63.922663 C183.451471,63.922663 180.332238,60.4037589 180.332238,53.4180055 L180.332238,41.3766904 L176.967246,41.3766904 L176.967246,35.9265534 L180.332238,35.9265534 L180.332238,28.9897315 L187.161994,27.9975671 L187.161994,35.9265534 L194.438105,35.9265534 L194.438105,41.3766904 Z" id="Fill-7" fill="#1E7DD3"></path>
                <path d="M213.146679,43.904263 C212.503928,41.9220164 210.869744,40.831989 208.346,40.831989 C205.821207,40.831989 204.189123,41.9220164 203.446598,43.904263 C202.802797,45.836537 202.654712,47.2732493 202.654712,49.6521534 C202.654712,52.0810301 202.802797,53.4677699 203.446598,55.4500164 C204.189123,57.3822904 205.821207,58.4223452 208.346,58.4223452 C210.869744,58.4223452 212.503928,57.3822904 213.146679,55.4500164 C213.889204,53.4677699 213.988977,52.0810301 213.988977,49.6521534 C213.988977,47.2732493 213.889204,45.836537 213.146679,43.904263 M208.346,63.9234959 C199.981833,63.9234959 195.824956,59.1656877 195.824956,49.6521534 C195.824956,40.0886466 199.981833,35.3318795 208.346,35.3318795 C216.660806,35.3318795 220.818734,40.0886466 220.818734,49.6521534 C220.818734,59.1656877 216.660806,63.9234959 208.346,63.9234959" id="Fill-9" fill="#1E7DD3"></path>
                <path d="M235.021328,58.4226575 C236.655513,58.4226575 238.09015,58.2248493 239.277979,57.8292329 L239.277979,41.4767397 C237.991427,41.0301096 236.555739,40.8323014 235.021328,40.8323014 C230.319373,40.8323014 228.736651,43.8546027 228.736651,49.6024932 C228.736651,55.4003562 230.271061,58.4226575 235.021328,58.4226575 M234.47625,35.3311507 C235.96235,35.3311507 237.545072,35.53 239.277979,35.975589 L239.277979,25.6687397 L246.107736,25.6687397 L246.107736,61.6438082 L244.573325,62.2882466 C243.929523,62.5360274 242.642971,62.8327397 240.713667,63.2793699 C238.783313,63.7249589 236.902321,63.9227671 235.021328,63.9227671 C225.865275,63.9227671 221.906894,59.1160274 221.906894,49.6024932 C221.906894,40.0889589 226.113134,35.3311507 234.47625,35.3311507" id="Fill-11" fill="#1E7DD3"></path>
                <path d="M263.479556,58.9675671 L264.072945,58.8186904 L264.072945,52.7740877 C262.341088,52.5752384 261.005174,52.4763342 260.015841,52.4763342 C256.6498,52.4763342 254.818169,53.2696493 254.818169,55.9952384 C254.818169,58.6208822 256.550026,59.4641699 259.519074,59.4641699 C261.053485,59.4641699 262.737031,59.2153479 263.479556,58.9675671 M264.072945,48.315074 L264.072945,45.2917315 C264.072945,42.3683342 262.09428,40.8816493 258.184211,40.8816493 C255.660467,40.8816493 252.838453,41.4761151 251.601262,42.0216493 L250.661291,42.3683342 L249.374739,37.3138137 C252.146341,35.9760055 255.46197,35.3315671 259.322678,35.3315671 C266.648151,35.3315671 270.85334,38.2549644 270.85334,45.4406082 L270.85334,61.6431836 C270.506758,61.7920603 270.062504,62.0398411 269.418702,62.2876219 C268.824263,62.5364438 267.488349,62.8331562 265.459271,63.2797863 C263.430194,63.7243342 261.351755,63.9231836 259.222905,63.9231836 C251.699986,63.9231836 247.939051,61.246526 247.939051,55.9452658 C247.939051,50.6429644 251.749347,47.968389 259.322678,47.968389 C261.053485,47.968389 262.638308,48.0662521 264.072945,48.315074" id="Fill-13" fill="#1E7DD3"></path>
                <g id="Group-17" transform="translate(273.064215, 35.913852)">
                    <mask id="mask-2" fill="white">
                        <use xlink:href="#path-1"></use>
                    </mask>
                    <g id="Clip-16"></g>
                    <path d="M0.164993801,0.0123890411 L6.9453883,0.0123890411 L6.9453883,17.2560603 C6.9453883,18.6927726 7.2426082,19.8327726 7.78663613,20.6260877 C8.97551571,22.2116767 10.261018,22.3605534 12.4402805,22.3605534 C14.2204491,22.3605534 16.0027183,22.1127726 16.7452429,21.8639507 L17.2892708,21.7171562 L17.2892708,0.0123890411 L24.1200772,0.0123890411 L24.1200772,25.0361699 C24.1200772,33.9063068 20.011511,38.316389 11.1033161,38.316389 C8.33066407,38.316389 5.36161586,37.7718959 4.0257017,37.3252658 L3.0353188,37.0285534 L3.87761687,31.7751836 C5.6577855,32.518526 7.83704799,32.865211 10.3607915,32.865211 C15.1604202,32.865211 17.6358523,30.932937 17.7839371,27.1173205 C16.1014415,27.5139781 14.2204491,27.7117863 12.1420104,27.7117863 C8.08385603,27.7117863 5.06439596,26.9195123 3.0846804,25.2839507 C1.15432646,23.648389 0.164993801,20.7260329 0.164993801,16.612663 L0.164993801,0.0123890411 Z" id="Fill-15" fill="#1E7DD3" mask="url(#mask-2)"></path>
                </g>
                <g id="Group-20" transform="translate(0.000000, 0.516592)">
                    <mask id="mask-4" fill="white">
                        <use xlink:href="#path-3"></use>
                    </mask>
                    <g id="Clip-19"></g>
                    <path d="M72.9951058,24.8990575 C70.8967123,32.6000438 67.7333684,37.9335781 63.5250288,40.8267836 C59.3860054,43.7376877 54.7859237,44.5164274 49.7962003,43.1817425 C47.37118,42.5320986 45.3799117,41.9240986 43.9127167,41.3077699 C43.9127167,41.3077699 51.8410311,21.9371397 54.5758743,16.1569753 C57.3086169,10.3757699 59.9016767,8.78393425 64.9743696,9.57516712 C72.7041874,10.7828384 75.2247801,16.7129205 72.9951058,24.8990575 L72.9951058,24.8990575 Z M24.7887694,60.5826192 C20.9984281,68.5584548 15.5728522,66.106674 15.4583752,66.2076603 C10.690254,64.7792767 9.09912978,61.2405918 10.6282894,55.6259616 C11.8948872,50.9774685 13.7664274,47.3846466 16.3111758,44.8651945 C18.8569745,42.3457425 22.0455243,41.5607562 25.8568706,42.5810301 C27.9363596,43.1380164 29.8015982,43.9344548 31.4336821,45.0421808 L24.7887694,60.5826192 Z M67.6829566,1.81483836 C56.8612117,-1.38340822 50.8590502,0.933030137 44.8463862,13.6427288 C42.0579805,19.5384548 34.5508151,37.6045918 34.5508151,37.6045918 C33.1266802,36.5603726 30.9925783,35.6931397 28.3007953,34.9737425 C21.440582,33.1362082 15.6379675,33.9649205 10.8940019,37.4588384 C6.23720676,40.9027836 2.89847161,46.336263 0.894600377,53.6905644 C-1.95997091,64.1671123 2.00996267,70.8873863 12.8905214,73.8003726 C15.0540302,74.3781808 17.3120612,74.8737425 19.6488607,74.9518247 C30.57458,75.314126 34.8774419,61.904811 34.8774419,61.904811 L40.4647558,48.8754959 C42.5305916,49.6209205 44.6111309,50.2788932 46.6717155,50.830674 C59.7703958,54.3370849 68.7678617,50.7900712 74.6828527,43.8126466 C78.7599115,38.9486466 81.1544746,33.708811 82.9503969,27.1176329 C86.5401411,13.9352767 81.3739762,5.86157808 67.6829566,1.81483836 L67.6829566,1.81483836 Z" id="Fill-18" fill="#F47F0B" mask="url(#mask-4)"></path>
                </g>
            </g>
        </g>
    </g>
</svg>